<svg xmlns="http://www.w3.org/2000/svg" viewBox="0 0 430.21 201.5"><defs><style>.cls-1{fill:none;stroke:#fff200;stroke-linecap:round;stroke-miterlimit:10;stroke-width:5px;}</style></defs><g id="Слой_2" data-name="Слой 2"><g id="Letters"><line class="cls-1" x1="2.5" y1="62.5" x2="2.5" y2="92.5"/><line class="cls-1" x1="2.5" y1="62.5" x2="67" y2="62"/><path class="cls-1" d="M67,62a168.62,168.62,0,0,1-8-21c-4.87-15.89-7.41-24.58-3-31,1.24-1.81,5.21-6.6,16.5-7.5"/><line class="cls-1" x1="72.5" y1="2.5" x2="202.5" y2="2.5"/><line class="cls-1" x1="202.5" y1="2.5" x2="202.5" y2="22.5"/><line class="cls-1" x1="202.5" y1="22.5" x2="162.5" y2="22.5"/><line class="cls-1" x1="162.5" y1="22.5" x2="162.5" y2="92.5"/><line class="cls-1" x1="162.5" y1="92.5" x2="132.5" y2="92.5"/><line class="cls-1" x1="132.5" y1="92.5" x2="132.5" y2="22.5"/><line class="cls-1" x1="132.5" y1="22.5" x2="92.5" y2="22.5"/><path class="cls-1" d="M92.5,92.5c9.59-6,11.87-13,12.5-15.5,1.24-4.88.16-9.59-2-19-1.29-5.62-2.38-8.58-5-17-1.58-5.08-3.46-11.31-5.5-18.5"/><line class="cls-1" x1="2.5" y1="92.5" x2="92.5" y2="92.5"/><line class="cls-1" x1="225.57" y1="3.5" x2="261.43" y2="3.5"/><line class="cls-1" x1="225.57" y1="3.5" x2="191.5" y2="93.5"/><line class="cls-1" x1="261.43" y1="3.5" x2="295.5" y2="93.5"/><line class="cls-1" x1="191.5" y1="93.5" x2="225.57" y2="93.5"/><line class="cls-1" x1="295.5" y1="93.5" x2="261.43" y2="93.5"/><line class="cls-1" x1="261.43" y1="93.5" x2="255.16" y2="76.5"/><line class="cls-1" x1="226.47" y1="93.5" x2="232.74" y2="76.5"/><line class="cls-1" x1="232.74" y1="76.5" x2="255.16" y2="76.5"/><line class="cls-1" x1="237.22" y1="49.5" x2="250.67" y2="49.5"/><line class="cls-1" x1="237.22" y1="49.5" x2="243.5" y2="23.5"/><line class="cls-1" x1="250.67" y1="49.5" x2="243.5" y2="23.5"/><line class="cls-1" x1="308.42" y1="4.5" x2="381.21" y2="4.5"/><line class="cls-1" x1="336.32" y1="24.5" x2="336.93" y2="38.5"/><line class="cls-1" x1="336.93" y1="24" x2="361.19" y2="24"/><line class="cls-1" x1="336.93" y1="38.5" x2="361.19" y2="38.5"/><path class="cls-1" d="M361.19,24c5.88-.47,9.95,4.25,9.71,7.86-.23,3.4-4.34,7.19-9.71,6.56"/><line class="cls-1" x1="380.92" y1="57.7" x2="389.7" y2="71.12"/><line class="cls-1" x1="389.7" y1="71.12" x2="427.26" y2="71.12"/><line class="cls-1" x1="308.42" y1="94.5" x2="344.81" y2="94.5"/><line class="cls-1" x1="344.81" y1="94.5" x2="344.81" y2="65"/><line class="cls-1" x1="344.81" y1="62.02" x2="372.42" y2="94.25"/><line class="cls-1" x1="372.42" y1="94.25" x2="427.26" y2="94.5"/><path class="cls-1" d="M381.21,4.5A24.24,24.24,0,0,1,401.75,19c4.14,9.76.25,19.08-.74,21.44-5.52,13.2-18.29,16.81-20.09,17.28"/><line class="cls-1" x1="427.26" y1="71.12" x2="427.26" y2="94.5"/><line class="cls-1" x1="308.42" y1="94.5" x2="308.42" y2="4.5"/><line class="cls-1" x1="2.93" y1="110.52" x2="33.03" y2="196.3"/><line class="cls-1" x1="147.49" y1="110.52" x2="117.4" y2="196.3"/><line class="cls-1" x1="33.03" y1="196.3" x2="59" y2="196.3"/><line class="cls-1" x1="59" y1="196.3" x2="74.04" y2="141.83"/><line class="cls-1" x1="91.45" y1="196.3" x2="75.21" y2="144.66"/><line class="cls-1" x1="91.45" y1="196.3" x2="117.4" y2="196.3"/><line class="cls-1" x1="2.93" y1="110.52" x2="33.03" y2="110.52"/><line class="cls-1" x1="33.03" y1="110.52" x2="46.01" y2="153.41"/><line class="cls-1" x1="89.09" y1="110.52" x2="59" y2="110.52"/><line class="cls-1" x1="59" y1="110.52" x2="46.01" y2="153.41"/><line class="cls-1" x1="60.17" y1="109.5" x2="90.26" y2="109.5"/><line class="cls-1" x1="90.26" y1="109.5" x2="104.42" y2="153.41"/><line class="cls-1" x1="147.5" y1="109.5" x2="117.41" y2="109.5"/><line class="cls-1" x1="117.41" y1="109.5" x2="104.42" y2="153.41"/><line class="cls-1" x1="168.86" y1="107.93" x2="207.14" y2="107.93"/><line class="cls-1" x1="168.86" y1="107.93" x2="132.5" y2="197.93"/><line class="cls-1" x1="207.14" y1="107.93" x2="243.5" y2="197.93"/><line class="cls-1" x1="132.5" y1="197.93" x2="168.86" y2="197.93"/><line class="cls-1" x1="243.5" y1="197.93" x2="207.14" y2="197.93"/><line class="cls-1" x1="207.14" y1="197.93" x2="200.44" y2="180.93"/><line class="cls-1" x1="169.82" y1="197.93" x2="176.52" y2="180.93"/><line class="cls-1" x1="176.52" y1="180.93" x2="200.44" y2="180.93"/><line class="cls-1" x1="181.3" y1="153.93" x2="195.66" y2="153.93"/><line class="cls-1" x1="181.3" y1="153.93" x2="188" y2="127.93"/><line class="cls-1" x1="195.66" y1="153.93" x2="188" y2="127.93"/><line class="cls-1" x1="253.26" y1="109" x2="324.5" y2="109"/><line class="cls-1" x1="280.57" y1="129" x2="281.16" y2="143"/><line class="cls-1" x1="281.16" y1="128.5" x2="304.91" y2="128.5"/><line class="cls-1" x1="281.16" y1="143" x2="304.91" y2="143"/><path class="cls-1" d="M304.91,128.51c5.75-.47,9.73,4.25,9.49,7.87-.22,3.39-4.24,7.19-9.49,6.55"/><line class="cls-1" x1="324.21" y1="162.2" x2="332.81" y2="175.62"/><line class="cls-1" x1="332.81" y1="175.62" x2="386.66" y2="175.62"/><line class="cls-1" x1="253.26" y1="199" x2="288.88" y2="199"/><line class="cls-1" x1="288.88" y1="199" x2="288.88" y2="169.5"/><line class="cls-1" x1="288.88" y1="166.52" x2="315.89" y2="198.76"/><line class="cls-1" x1="315.89" y1="198.76" x2="413.26" y2="198"/><path class="cls-1" d="M324.5,109a23.77,23.77,0,0,1,20.1,14.48c4,9.76.24,19.08-.73,21.44-5.4,13.2-17.9,16.81-19.66,17.28"/><line class="cls-1" x1="253.26" y1="199" x2="253.26" y2="109"/><path class="cls-1" d="M386.66,175.62c-2.28-3.38-5.63-8.37-9.68-14.45-5.08-7.61-7.62-11.41-8.11-12.24-4.41-7.53-12.87-21.94-7.75-31.32,5.67-10.37,24.74-8.69,25.54-8.61"/><line class="cls-1" x1="386.66" y1="109" x2="427.71" y2="109"/><line class="cls-1" x1="427.71" y1="109" x2="427.71" y2="128.5"/><line class="cls-1" x1="427.53" y1="130.39" x2="388.43" y2="130.36"/><path class="cls-1" d="M388.43,130.36c14.71,14.26,22.91,26.91,27.3,34.77,3.36,6,5.81,11.61,4.93,18.36A25.86,25.86,0,0,1,413.2,198"/></g></g></svg>